# Blender 5.2.0 LTS
# www.blender.org
mtllib gate.mtl
o Cube
v -50.000000 0.000006 2.500004
v -50.000000 150.000000 2.500004
v -50.000000 0.000006 -2.499998
v -50.000000 150.000000 -2.499998
v 50.000000 0.000006 2.499998
v 50.000000 150.000000 2.499998
v 50.000000 0.000006 -2.500004
v 50.000000 150.000000 -2.500004
v -50.000000 25.000004 2.500004
v -50.000000 50.000000 2.500004
v -50.000000 75.000000 2.500004
v -50.000000 100.000000 2.500004
v -50.000000 125.000000 2.500004
v -50.000000 125.000000 -2.499998
v -50.000000 100.000000 -2.499998
v -50.000000 75.000000 -2.499998
v -50.000000 50.000000 -2.499998
v -50.000000 25.000004 -2.499998
v 50.000000 125.000000 -2.500004
v 50.000000 100.000000 -2.500004
v 50.000000 75.000000 -2.500004
v 50.000000 50.000000 -2.500004
v 50.000000 25.000004 -2.500004
v 50.000000 125.000000 2.499998
v 50.000000 100.000000 2.499998
v 50.000000 75.000000 2.499998
v 50.000000 50.000000 2.499998
v 50.000000 25.000004 2.499998
v 25.000000 0.000006 -2.500000
v 0.000000 0.000006 -2.500000
v -25.000000 0.000006 -2.499999
v -25.000000 150.000000 -2.499999
v 0.000000 150.000000 -2.500000
v 25.000000 150.000000 -2.500000
v -25.000000 0.000006 2.500000
v 0.000000 0.000006 2.500000
v 25.000000 0.000006 2.499999
v 25.000000 150.000000 2.499999
v 0.000000 150.000000 2.500000
v -25.000000 150.000000 2.500000
v 25.000000 25.000004 2.499999
v 0.000000 25.000004 2.500000
v -25.000000 25.000004 2.500000
v 25.000000 50.000000 2.499999
v 0.000000 50.000000 2.500000
v -25.000000 50.000000 2.500000
v 25.000000 75.000000 2.499999
v 0.000000 75.000000 2.500000
v -25.000000 75.000000 2.500000
v 25.000000 100.000000 2.499999
v 0.000000 100.000000 2.500000
v -25.000000 100.000000 2.500000
v 25.000000 125.000000 2.499999
v 0.000000 125.000000 2.500000
v -25.000000 125.000000 2.500000
v -25.000000 25.000004 -2.499999
v 0.000000 25.000004 -2.500000
v 25.000000 25.000004 -2.500000
v -25.000000 50.000000 -2.499999
v 0.000000 50.000000 -2.500000
v 25.000000 50.000000 -2.500000
v -25.000000 75.000000 -2.499999
v 0.000000 75.000000 -2.500000
v 25.000000 75.000000 -2.500000
v -25.000000 100.000000 -2.499999
v 0.000000 100.000000 -2.500000
v 25.000000 100.000000 -2.500000
v -25.000000 125.000000 -2.499999
v 0.000000 125.000000 -2.500000
v 25.000000 125.000000 -2.500000
vn -1.0000 -0.0000 -0.0000
vn -0.0000 -0.0000 -1.0000
vn 1.0000 -0.0000 -0.0000
vn -0.0000 -0.0000 1.0000
vn -0.0000 -1.0000 -0.0000
vn -0.0000 1.0000 -0.0000
vt 0.123725 2.343425
vt 0.123725 2.812078
vt 0.000528 2.812077
vt 0.000528 2.343425
vt 0.469375 2.345958
vt 0.469375 2.815103
vt 0.000230 2.815103
vt 0.000230 2.345958
vt 0.122941 2.344080
vt 0.122941 2.812863
vt 0.003132 2.812863
vt 0.003132 2.344080
vt 0.469149 2.344824
vt 0.469149 2.813743
vt 0.000230 2.813743
vt 0.000230 2.344824
vt 0.468772 0.129755
vt 0.000133 0.129755
vt 0.000133 0.002836
vt 0.468772 0.002836
vt 1.405592 0.847246
vt 1.874099 0.847246
vt 1.874099 0.999929
vt 1.405592 0.999929
vt 0.469149 0.000230
vt 0.469149 0.469149
vt 0.000230 0.469149
vt 0.000230 0.000230
vt 0.469149 0.938068
vt 0.000230 0.938068
vt 0.469149 1.406986
vt 0.000230 1.406986
vt 0.469149 1.875905
vt 0.000230 1.875905
vt 0.122941 0.000162
vt 0.122941 0.468946
vt 0.003132 0.468946
vt 0.003132 0.000162
vt 0.122941 0.937729
vt 0.003132 0.937729
vt 0.122941 1.406513
vt 0.003132 1.406513
vt 0.122941 1.875296
vt 0.003132 1.875296
vt 0.469375 0.000230
vt 0.469375 0.469375
vt 0.000230 0.469375
vt 0.000230 0.000230
vt 0.469375 0.938521
vt 0.000230 0.938521
vt 0.469375 1.407666
vt 0.000230 1.407666
vt 0.469375 1.876812
vt 0.000230 1.876812
vt 0.123725 0.000162
vt 0.123725 0.468815
vt 0.000528 0.468815
vt 0.000528 0.000162
vt 0.123725 0.937467
vt 0.000528 0.937467
vt 0.123725 1.406120
vt 0.000528 1.406120
vt 0.123725 1.874773
vt 0.000528 1.874773
vt 1.876812 1.876812
vt 1.876812 2.345958
vt 1.407666 2.345958
vt 1.407666 1.876812
vt 0.938521 2.345958
vt 0.938521 1.876812
vt 1.876812 1.407666
vt 1.407666 1.407666
vt 0.938521 1.407666
vt 1.876812 0.938521
vt 1.407666 0.938521
vt 0.938521 0.938521
vt 1.876812 0.469375
vt 1.407666 0.469375
vt 0.938521 0.469375
vt 1.876812 0.000230
vt 1.407666 0.000230
vt 0.938521 0.000230
vt 1.875905 1.875905
vt 1.875905 2.344824
vt 1.406986 2.344824
vt 1.406986 1.875905
vt 0.938067 2.344824
vt 0.938068 1.875905
vt 1.875905 1.406986
vt 1.406986 1.406986
vt 0.938067 1.406986
vt 1.875905 0.938067
vt 1.406986 0.938067
vt 0.938068 0.938068
vt 1.875905 0.469149
vt 1.406986 0.469149
vt 0.938068 0.469149
vt 1.875905 0.000230
vt 1.406986 0.000230
vt 0.938068 0.000230
vt 0.000071 0.847246
vt 0.468578 0.847246
vt 0.468578 0.999929
vt 0.000071 0.999929
vt 0.937085 0.847246
vt 0.937085 0.999929
vt 1.874691 0.129755
vt 1.406051 0.129755
vt 1.406051 0.002836
vt 1.874691 0.002836
vt 0.937411 0.129755
vt 0.937411 0.002836
vt 1.875905 2.813743
vt 1.406986 2.813743
vt 0.938067 2.813743
vt 1.876812 2.815103
vt 1.407666 2.815103
vt 0.938521 2.815103
s 0
usemtl Material.001
f 13/1/1 2/2/1 4/3/1 14/4/1
f 70/5/2 34/6/2 8/7/2 19/8/2
f 19/9/3 8/10/3 6/11/3 24/12/3
f 55/13/4 40/14/4 2/15/4 13/16/4
f 29/17/5 7/18/5 5/19/5 37/20/5
f 32/21/6 4/22/6 2/23/6 40/24/6
f 35/25/4 43/26/4 9/27/4 1/28/4
f 43/26/4 46/29/4 10/30/4 9/27/4
f 46/29/4 49/31/4 11/32/4 10/30/4
f 49/31/4 52/33/4 12/34/4 11/32/4
f 52/33/4 55/13/4 13/16/4 12/34/4
f 7/35/3 23/36/3 28/37/3 5/38/3
f 23/36/3 22/39/3 27/40/3 28/37/3
f 22/39/3 21/41/3 26/42/3 27/40/3
f 21/41/3 20/43/3 25/44/3 26/42/3
f 20/43/3 19/9/3 24/12/3 25/44/3
f 29/45/2 58/46/2 23/47/2 7/48/2
f 58/46/2 61/49/2 22/50/2 23/47/2
f 61/49/2 64/51/2 21/52/2 22/50/2
f 64/51/2 67/53/2 20/54/2 21/52/2
f 67/53/2 70/5/2 19/8/2 20/54/2
f 1/55/1 9/56/1 18/57/1 3/58/1
f 9/56/1 10/59/1 17/60/1 18/57/1
f 10/59/1 11/61/1 16/62/1 17/60/1
f 11/61/1 12/63/1 15/64/1 16/62/1
f 12/63/1 13/1/1 14/4/1 15/64/1
f 15/65/2 14/66/2 68/67/2 65/68/2
f 65/68/2 68/67/2 69/69/2 66/70/2
f 66/70/2 69/69/2 70/5/2 67/53/2
f 16/71/2 15/65/2 65/68/2 62/72/2
f 62/72/2 65/68/2 66/70/2 63/73/2
f 63/73/2 66/70/2 67/53/2 64/51/2
f 17/74/2 16/71/2 62/72/2 59/75/2
f 59/75/2 62/72/2 63/73/2 60/76/2
f 60/76/2 63/73/2 64/51/2 61/49/2
f 18/77/2 17/74/2 59/75/2 56/78/2
f 56/78/2 59/75/2 60/76/2 57/79/2
f 57/79/2 60/76/2 61/49/2 58/46/2
f 3/80/2 18/77/2 56/78/2 31/81/2
f 31/81/2 56/78/2 57/79/2 30/82/2
f 30/82/2 57/79/2 58/46/2 29/45/2
f 25/83/4 24/84/4 53/85/4 50/86/4
f 50/86/4 53/85/4 54/87/4 51/88/4
f 51/88/4 54/87/4 55/13/4 52/33/4
f 26/89/4 25/83/4 50/86/4 47/90/4
f 47/90/4 50/86/4 51/88/4 48/91/4
f 48/91/4 51/88/4 52/33/4 49/31/4
f 27/92/4 26/89/4 47/90/4 44/93/4
f 44/93/4 47/90/4 48/91/4 45/94/4
f 45/94/4 48/91/4 49/31/4 46/29/4
f 28/95/4 27/92/4 44/93/4 41/96/4
f 41/96/4 44/93/4 45/94/4 42/97/4
f 42/97/4 45/94/4 46/29/4 43/26/4
f 5/98/4 28/95/4 41/96/4 37/99/4
f 37/99/4 41/96/4 42/97/4 36/100/4
f 36/100/4 42/97/4 43/26/4 35/25/4
f 8/101/6 34/102/6 38/103/6 6/104/6
f 34/102/6 33/105/6 39/106/6 38/103/6
f 33/105/6 32/21/6 40/24/6 39/106/6
f 3/107/5 31/108/5 35/109/5 1/110/5
f 31/108/5 30/111/5 36/112/5 35/109/5
f 30/111/5 29/17/5 37/20/5 36/112/5
f 24/84/4 6/113/4 38/114/4 53/85/4
f 53/85/4 38/114/4 39/115/4 54/87/4
f 54/87/4 39/115/4 40/14/4 55/13/4
f 14/66/2 4/116/2 32/117/2 68/67/2
f 68/67/2 32/117/2 33/118/2 69/69/2
f 69/69/2 33/118/2 34/6/2 70/5/2
