# Blender 5.2.0 LTS
# www.blender.org
o Cube
v -4.000000 0.000000 -16.000000
v -4.000000 16.000000 -16.000000
v 4.000000 0.000000 -16.000000
v 4.000000 16.000000 -16.000000
v -4.000000 0.000000 16.000000
v -4.000000 16.000000 16.000000
v 4.000000 0.000000 16.000000
v 4.000000 16.000000 16.000000
vn -0.0000 -0.0000 -1.0000
vn 1.0000 -0.0000 -0.0000
vn -0.0000 -0.0000 1.0000
vn -1.0000 -0.0000 -0.0000
vn -0.0000 -1.0000 -0.0000
vn -0.0000 1.0000 -0.0000
vt 0.685547 0.658203
vt 0.935547 0.658203
vt 0.935547 0.908203
vt 0.685547 0.908203
vt 0.091797 0.628906
vt 0.341797 0.628906
vt 0.341797 0.878906
vt 0.091797 0.878906
vt 0.660156 0.687500
vt 0.910156 0.687500
vt 0.910156 0.937500
vt 0.660156 0.937500
vt 0.037109 0.705078
vt 0.287109 0.705078
vt 0.287109 0.955078
vt 0.037109 0.955078
vt 0.687500 0.597656
vt 0.937500 0.597656
vt 0.937500 0.847656
vt 0.687500 0.847656
vt 0.654297 0.578125
vt 0.904297 0.578125
vt 0.904297 0.828125
vt 0.654297 0.828125
s 0
f 1/1/1 2/2/1 4/3/1 3/4/1
f 3/5/2 4/6/2 8/7/2 7/8/2
f 7/9/3 8/10/3 6/11/3 5/12/3
f 5/13/4 6/14/4 2/15/4 1/16/4
f 3/17/5 7/18/5 5/19/5 1/20/5
f 8/21/6 4/22/6 2/23/6 6/24/6
o Cube.001
v -1.600000 5.817663 -12.445080
v -1.600000 28.445080 10.182337
v 1.600000 5.817663 -12.445080
v 1.600000 28.445080 10.182337
v -1.600000 3.554920 -10.182337
v -1.600000 26.182337 12.445080
v 1.600000 3.554920 -10.182337
v 1.600000 26.182337 12.445080
vn -0.0000 0.7071 -0.7071
vn 1.0000 -0.0000 -0.0000
vn -0.0000 -0.7071 0.7071
vn -1.0000 -0.0000 -0.0000
vn -0.0000 -0.7071 -0.7071
vn -0.0000 0.7071 0.7071
vt 0.107422 0.632812
vt 0.357422 0.632812
vt 0.357422 0.882812
vt 0.107422 0.882812
vt 0.093750 0.613281
vt 0.343750 0.613281
vt 0.343750 0.863281
vt 0.093750 0.863281
vt 0.054688 0.632812
vt 0.304688 0.632812
vt 0.304688 0.882812
vt 0.054688 0.882812
vt 0.015625 0.660156
vt 0.265625 0.660156
vt 0.265625 0.910156
vt 0.015625 0.910156
vt 0.039063 0.630859
vt 0.289062 0.630859
vt 0.289062 0.880859
vt 0.039063 0.880859
vt 0.023438 0.634766
vt 0.273438 0.634766
vt 0.273438 0.884766
vt 0.023438 0.884766
s 1
f 9/25/7 10/26/7 12/27/7 11/28/7
f 11/29/8 12/30/8 16/31/8 15/32/8
f 15/33/9 16/34/9 14/35/9 13/36/9
f 13/37/10 14/38/10 10/39/10 9/40/10
f 11/41/11 15/42/11 13/43/11 9/44/11
f 16/45/12 12/46/12 10/47/12 14/48/12
o Cube.002
v -3.200000 22.400000 6.400001
v -3.200000 28.800001 6.400001
v 3.200000 22.400000 6.400001
v 3.200000 28.800001 6.400001
v -3.200000 22.400000 12.800000
v -3.200000 28.800001 12.800000
v 3.200000 22.400000 12.800000
v 3.200000 28.800001 12.800000
vn -0.0000 -0.0000 -1.0000
vn 1.0000 -0.0000 -0.0000
vn -0.0000 -0.0000 1.0000
vn -1.0000 -0.0000 -0.0000
vn -0.0000 -1.0000 -0.0000
vn -0.0000 1.0000 -0.0000
vt 0.590043 0.962040
vt 0.590043 0.629106
vt 0.922977 0.629106
vt 0.922977 0.962040
vt 0.091997 0.945764
vt 0.091997 0.612830
vt 0.424930 0.612830
vt 0.424930 0.945764
vt 0.620643 0.932743
vt 0.620643 0.599809
vt 0.953576 0.599809
vt 0.953576 0.932743
vt 0.086137 0.949019
vt 0.086137 0.616085
vt 0.419071 0.616085
vt 0.419071 0.949019
vt 0.947717 0.949019
vt 0.614783 0.949019
vt 0.614783 0.616085
vt 0.947717 0.616085
vt 0.941858 0.953576
vt 0.608924 0.953576
vt 0.608924 0.620642
vt 0.941857 0.620642
s 1
f 17/49/13 18/50/13 20/51/13 19/52/13
f 19/53/14 20/54/14 24/55/14 23/56/14
f 23/57/15 24/58/15 22/59/15 21/60/15
f 21/61/16 22/62/16 18/63/16 17/64/16
f 19/65/17 23/66/17 21/67/17 17/68/17
f 24/69/18 20/70/18 18/71/18 22/72/18
